<svg width="124" height="58" viewBox="0 0 124 58" fill="none" xmlns="http://www.w3.org/2000/svg">
<path d="M18.7832 14.4336H21.332V24.6484C21.332 25.612 21.1172 26.429 20.6875 27.0996C20.2643 27.7767 19.6719 28.2878 18.9102 28.6328C18.1484 28.9844 17.263 29.1602 16.2539 29.1602C15.8112 29.1602 15.3424 29.1016 14.8477 28.9844C14.3594 28.8672 13.8906 28.6849 13.4414 28.4375C12.9987 28.1901 12.6276 27.8776 12.3281 27.5L13.5684 25.8398C13.8939 26.2174 14.2715 26.5104 14.7012 26.7188C15.1309 26.9336 15.6061 27.041 16.127 27.041C16.6348 27.041 17.0645 26.9466 17.416 26.7578C17.7676 26.5755 18.0378 26.3053 18.2266 25.9473C18.4154 25.5957 18.5098 25.1693 18.5098 24.668V16.875L18.7832 14.4336ZM11.6738 19.8438V19.6387C11.6738 18.8314 11.7715 18.099 11.9668 17.4414C12.1686 16.7773 12.4518 16.2077 12.8164 15.7324C13.1875 15.2572 13.6367 14.8893 14.1641 14.6289C14.6914 14.3685 15.2871 14.2383 15.9512 14.2383C16.6543 14.2383 17.2435 14.3685 17.7188 14.6289C18.194 14.8893 18.5846 15.2604 18.8906 15.7422C19.1966 16.2174 19.4342 16.7806 19.6035 17.4316C19.7793 18.0762 19.916 18.7826 20.0137 19.5508V20C19.916 20.7357 19.7695 21.4193 19.5742 22.0508C19.3789 22.6823 19.1217 23.2357 18.8027 23.7109C18.4837 24.1797 18.0866 24.5443 17.6113 24.8047C17.1426 25.0651 16.5827 25.1953 15.9316 25.1953C15.2806 25.1953 14.6914 25.0618 14.1641 24.7949C13.6432 24.528 13.1973 24.1536 12.8262 23.6719C12.4551 23.1901 12.1686 22.6237 11.9668 21.9727C11.7715 21.3216 11.6738 20.612 11.6738 19.8438ZM14.4863 19.6387V19.8438C14.4863 20.2799 14.5286 20.6868 14.6133 21.0645C14.6979 21.4421 14.8281 21.7773 15.0039 22.0703C15.1862 22.3568 15.4108 22.5814 15.6777 22.7441C15.9512 22.9004 16.2734 22.9785 16.6445 22.9785C17.1589 22.9785 17.5788 22.8711 17.9043 22.6562C18.2298 22.4349 18.474 22.1322 18.6367 21.748C18.7995 21.3639 18.8939 20.9212 18.9199 20.4199V19.1406C18.9069 18.7305 18.8516 18.3626 18.7539 18.0371C18.6562 17.7051 18.5195 17.4219 18.3438 17.1875C18.168 16.9531 17.9401 16.7708 17.6602 16.6406C17.3802 16.5104 17.0482 16.4453 16.6641 16.4453C16.293 16.4453 15.9707 16.5299 15.6973 16.6992C15.4303 16.862 15.2057 17.0866 15.0234 17.373C14.8477 17.6595 14.7142 17.998 14.623 18.3887C14.5319 18.7728 14.4863 19.1895 14.4863 19.6387ZM26.332 16.7383V25H23.5195V14.4336H26.166L26.332 16.7383ZM29.5156 14.3652L29.4668 16.9727C29.3301 16.9531 29.1641 16.9368 28.9688 16.9238C28.7799 16.9043 28.6074 16.8945 28.4512 16.8945C28.054 16.8945 27.709 16.9466 27.416 17.0508C27.1296 17.1484 26.8887 17.2949 26.6934 17.4902C26.5046 17.6855 26.3613 17.9232 26.2637 18.2031C26.1725 18.4831 26.1204 18.8021 26.1074 19.1602L25.541 18.9844C25.541 18.3008 25.6094 17.6725 25.7461 17.0996C25.8828 16.5202 26.0814 16.0156 26.3418 15.5859C26.6087 15.1562 26.9342 14.8242 27.3184 14.5898C27.7025 14.3555 28.1419 14.2383 28.6367 14.2383C28.793 14.2383 28.9525 14.2513 29.1152 14.2773C29.278 14.2969 29.4115 14.3262 29.5156 14.3652ZM35.5117 25.1953C34.6914 25.1953 33.9557 25.0651 33.3047 24.8047C32.6536 24.5378 32.1003 24.1699 31.6445 23.7012C31.1953 23.2324 30.8503 22.6888 30.6094 22.0703C30.3685 21.4453 30.248 20.7812 30.248 20.0781V19.6875C30.248 18.8867 30.362 18.1543 30.5898 17.4902C30.8177 16.8262 31.1432 16.25 31.5664 15.7617C31.9961 15.2734 32.5169 14.8991 33.1289 14.6387C33.7409 14.3717 34.431 14.2383 35.1992 14.2383C35.9479 14.2383 36.612 14.362 37.1914 14.6094C37.7708 14.8568 38.2559 15.2083 38.6465 15.6641C39.0436 16.1198 39.3431 16.6667 39.5449 17.3047C39.7467 17.9362 39.8477 18.6393 39.8477 19.4141V20.5859H31.4492V18.7109H37.084V18.4961C37.084 18.1055 37.0124 17.7572 36.8691 17.4512C36.7324 17.1387 36.5241 16.8913 36.2441 16.709C35.9642 16.5267 35.6061 16.4355 35.1699 16.4355C34.7988 16.4355 34.4798 16.5169 34.2129 16.6797C33.946 16.8424 33.7279 17.0703 33.5586 17.3633C33.3958 17.6562 33.2721 18.0013 33.1875 18.3984C33.1094 18.7891 33.0703 19.2188 33.0703 19.6875V20.0781C33.0703 20.5013 33.1289 20.8919 33.2461 21.25C33.3698 21.6081 33.5423 21.9173 33.7637 22.1777C33.9915 22.4382 34.265 22.64 34.584 22.7832C34.9095 22.9264 35.2773 22.998 35.6875 22.998C36.1953 22.998 36.6673 22.9004 37.1035 22.7051C37.5462 22.5033 37.9271 22.2005 38.2461 21.7969L39.6133 23.2812C39.3919 23.6003 39.0892 23.9062 38.7051 24.1992C38.3275 24.4922 37.8717 24.7331 37.3379 24.9219C36.804 25.1042 36.1953 25.1953 35.5117 25.1953ZM46.3125 25.1953C45.4922 25.1953 44.7565 25.0651 44.1055 24.8047C43.4544 24.5378 42.901 24.1699 42.4453 23.7012C41.9961 23.2324 41.651 22.6888 41.4102 22.0703C41.1693 21.4453 41.0488 20.7812 41.0488 20.0781V19.6875C41.0488 18.8867 41.1628 18.1543 41.3906 17.4902C41.6185 16.8262 41.944 16.25 42.3672 15.7617C42.7969 15.2734 43.3177 14.8991 43.9297 14.6387C44.5417 14.3717 45.2318 14.2383 46 14.2383C46.7487 14.2383 47.4128 14.362 47.9922 14.6094C48.5716 14.8568 49.0566 15.2083 49.4473 15.6641C49.8444 16.1198 50.1439 16.6667 50.3457 17.3047C50.5475 17.9362 50.6484 18.6393 50.6484 19.4141V20.5859H42.25V18.7109H47.8848V18.4961C47.8848 18.1055 47.8132 17.7572 47.6699 17.4512C47.5332 17.1387 47.3249 16.8913 47.0449 16.709C46.765 16.5267 46.4069 16.4355 45.9707 16.4355C45.5996 16.4355 45.2806 16.5169 45.0137 16.6797C44.7467 16.8424 44.5286 17.0703 44.3594 17.3633C44.1966 17.6562 44.0729 18.0013 43.9883 18.3984C43.9102 18.7891 43.8711 19.2188 43.8711 19.6875V20.0781C43.8711 20.5013 43.9297 20.8919 44.0469 21.25C44.1706 21.6081 44.3431 21.9173 44.5645 22.1777C44.7923 22.4382 45.0658 22.64 45.3848 22.7832C45.7103 22.9264 46.0781 22.998 46.4883 22.998C46.9961 22.998 47.4681 22.9004 47.9043 22.7051C48.347 22.5033 48.7279 22.2005 49.0469 21.7969L50.4141 23.2812C50.1927 23.6003 49.89 23.9062 49.5059 24.1992C49.1283 24.4922 48.6725 24.7331 48.1387 24.9219C47.6048 25.1042 46.9961 25.1953 46.3125 25.1953ZM55.0039 16.6895V25H52.1914V14.4336H54.8281L55.0039 16.6895ZM54.5938 19.3457H53.832C53.832 18.5645 53.9329 17.8613 54.1348 17.2363C54.3366 16.6048 54.6198 16.0677 54.9844 15.625C55.349 15.1758 55.7819 14.834 56.2832 14.5996C56.791 14.3587 57.3574 14.2383 57.9824 14.2383C58.4772 14.2383 58.9297 14.3099 59.3398 14.4531C59.75 14.5964 60.1016 14.8242 60.3945 15.1367C60.694 15.4492 60.9219 15.8626 61.0781 16.377C61.2409 16.8913 61.3223 17.5195 61.3223 18.2617V25H58.4902V18.252C58.4902 17.7832 58.4251 17.4186 58.2949 17.1582C58.1647 16.8978 57.9727 16.7155 57.7188 16.6113C57.4714 16.5007 57.1654 16.4453 56.8008 16.4453C56.4232 16.4453 56.0944 16.5202 55.8145 16.6699C55.541 16.8197 55.3132 17.028 55.1309 17.2949C54.9551 17.5553 54.8216 17.8613 54.7305 18.2129C54.6393 18.5645 54.5938 18.9421 54.5938 19.3457ZM18.3438 45.4707V37.4336H21.1562V48H18.5098L18.3438 45.4707ZM18.6562 43.3027L19.4863 43.2832C19.4863 43.9863 19.4049 44.6406 19.2422 45.2461C19.0794 45.8451 18.8353 46.3659 18.5098 46.8086C18.1842 47.2448 17.7741 47.5866 17.2793 47.834C16.7845 48.0749 16.2018 48.1953 15.5312 48.1953C15.0169 48.1953 14.5417 48.1237 14.1055 47.9805C13.6758 47.8307 13.3047 47.5996 12.9922 47.2871C12.6862 46.9681 12.4453 46.5612 12.2695 46.0664C12.1003 45.5651 12.0156 44.9629 12.0156 44.2598V37.4336H14.8281V44.2793C14.8281 44.5918 14.8639 44.8555 14.9355 45.0703C15.0137 45.2852 15.1211 45.4609 15.2578 45.5977C15.3945 45.7344 15.554 45.832 15.7363 45.8906C15.9251 45.9492 16.1335 45.9785 16.3613 45.9785C16.9408 45.9785 17.3965 45.8613 17.7285 45.627C18.0671 45.3926 18.3047 45.0736 18.4414 44.6699C18.5846 44.2598 18.6562 43.804 18.6562 43.3027ZM26.0586 39.6895V48H23.2461V37.4336H25.8828L26.0586 39.6895ZM25.6484 42.3457H24.8867C24.8867 41.5645 24.9876 40.8613 25.1895 40.2363C25.3913 39.6048 25.6745 39.0677 26.0391 38.625C26.4036 38.1758 26.8366 37.834 27.3379 37.5996C27.8457 37.3587 28.4121 37.2383 29.0371 37.2383C29.5319 37.2383 29.9844 37.3099 30.3945 37.4531C30.8047 37.5964 31.1562 37.8242 31.4492 38.1367C31.7487 38.4492 31.9766 38.8626 32.1328 39.377C32.2956 39.8913 32.377 40.5195 32.377 41.2617V48H29.5449V41.252C29.5449 40.7832 29.4798 40.4186 29.3496 40.1582C29.2194 39.8978 29.0273 39.7155 28.7734 39.6113C28.526 39.5007 28.2201 39.4453 27.8555 39.4453C27.4779 39.4453 27.1491 39.5202 26.8691 39.6699C26.5957 39.8197 26.3678 40.028 26.1855 40.2949C26.0098 40.5553 25.8763 40.8613 25.7852 41.2129C25.694 41.5645 25.6484 41.9421 25.6484 42.3457ZM37.4844 37.4336V48H34.6621V37.4336H37.4844ZM34.4863 34.6797C34.4863 34.2695 34.6296 33.931 34.916 33.6641C35.2025 33.3971 35.5866 33.2637 36.0684 33.2637C36.5436 33.2637 36.9245 33.3971 37.2109 33.6641C37.5039 33.931 37.6504 34.2695 37.6504 34.6797C37.6504 35.0898 37.5039 35.4284 37.2109 35.6953C36.9245 35.9622 36.5436 36.0957 36.0684 36.0957C35.5866 36.0957 35.2025 35.9622 34.916 35.6953C34.6296 35.4284 34.4863 35.0898 34.4863 34.6797ZM44.9844 37.4336V39.4258H38.832V37.4336H44.9844ZM40.3555 34.8262H43.168V44.8164C43.168 45.1224 43.207 45.3568 43.2852 45.5195C43.3698 45.6823 43.4935 45.7962 43.6562 45.8613C43.819 45.9199 44.0241 45.9492 44.2715 45.9492C44.4473 45.9492 44.6035 45.9427 44.7402 45.9297C44.8835 45.9102 45.0039 45.8906 45.1016 45.8711L45.1113 47.9414C44.8704 48.0195 44.61 48.0814 44.3301 48.127C44.0501 48.1725 43.7409 48.1953 43.4023 48.1953C42.7839 48.1953 42.2435 48.0944 41.7812 47.8926C41.3255 47.6842 40.974 47.3522 40.7266 46.8965C40.4792 46.4408 40.3555 45.8418 40.3555 45.0996V34.8262ZM49.7207 46.8086L52.5234 37.4336H55.541L51.293 49.5918C51.2018 49.8587 51.0781 50.1452 50.9219 50.4512C50.7721 50.7572 50.5671 51.0469 50.3066 51.3203C50.0527 51.6003 49.7305 51.8281 49.3398 52.0039C48.9557 52.1797 48.4837 52.2676 47.9238 52.2676C47.6569 52.2676 47.4388 52.2513 47.2695 52.2188C47.1003 52.1862 46.8984 52.1406 46.6641 52.082V50.0215C46.7357 50.0215 46.8105 50.0215 46.8887 50.0215C46.9668 50.028 47.0417 50.0312 47.1133 50.0312C47.4844 50.0312 47.7871 49.9889 48.0215 49.9043C48.2559 49.8197 48.4447 49.6895 48.5879 49.5137C48.7311 49.3444 48.8451 49.123 48.9297 48.8496L49.7207 46.8086ZM48.5488 37.4336L50.8438 45.0898L51.2441 48.0684L49.3301 48.2734L45.5312 37.4336H48.5488Z" fill="white"/>
<circle cx="95" cy="29" r="29" fill="#1ABC9C"/>
<g clip-path="url(#clip0_46_270)">
<path d="M93.6326 13.3918L84.0134 24.2492C83.7609 24.5281 83.625 24.9 83.625 25.2785C83.625 26.1285 84.2917 26.8125 85.1203 26.8125H86.7321L81.9808 31.6867C81.7089 31.9656 81.5536 32.3508 81.5536 32.7492C81.5536 33.5793 82.2074 34.25 83.0165 34.25H85.1786L80.3496 40.1934C80.123 40.4723 80 40.8242 80 41.1895C80 42.0527 80.6797 42.75 81.5212 42.75H92.4286V44.875C92.4286 46.0504 93.3542 47 94.5 47C95.6458 47 96.5714 46.0504 96.5714 44.875V42.75H107.479C108.32 42.75 109 42.0527 109 41.1895C109 40.8242 108.877 40.4723 108.65 40.1934L103.821 34.25H105.983C106.793 34.25 107.446 33.5793 107.446 32.7492C107.446 32.3508 107.291 31.9656 107.019 31.6867L102.268 26.8125H103.88C104.702 26.8125 105.375 26.1285 105.375 25.2785C105.375 24.9 105.239 24.5281 104.987 24.2492L95.3674 13.3918C95.1473 13.1395 94.8301 13 94.5 13C94.1699 13 93.8527 13.1395 93.6326 13.3918Z" fill="white"/>
<g clip-path="url(#clip1_46_270)">
<path d="M98.4616 25.2535L92.4911 32.2789C92.3344 32.4594 92.25 32.7 92.25 32.9449C92.25 33.4949 92.6638 33.9375 93.1781 33.9375H94.1786L91.2295 37.0914C91.0607 37.2719 90.9643 37.5211 90.9643 37.7789C90.9643 38.316 91.3701 38.75 91.8723 38.75H93.2143L90.217 42.5957C90.0763 42.7762 90 43.0039 90 43.2402C90 43.7988 90.4219 44.25 90.9442 44.25H97.7143V45.625C97.7143 46.3855 98.2888 47 99 47C99.7112 47 100.286 46.3855 100.286 45.625V44.25H107.056C107.578 44.25 108 43.7988 108 43.2402C108 43.0039 107.924 42.7762 107.783 42.5957L104.786 38.75H106.128C106.63 38.75 107.036 38.316 107.036 37.7789C107.036 37.5211 106.939 37.2719 106.771 37.0914L103.821 33.9375H104.822C105.332 33.9375 105.75 33.4949 105.75 32.9449C105.75 32.7 105.666 32.4594 105.509 32.2789L99.5384 25.2535C99.4018 25.0902 99.2049 25 99 25C98.7951 25 98.5982 25.0902 98.4616 25.2535Z" fill="#005A50"/>
</g>
</g>
<defs>
<clipPath id="clip0_46_270">
<rect width="29" height="34" fill="white" transform="translate(80 12)"/>
</clipPath>
<clipPath id="clip1_46_270">
<rect width="18" height="22" fill="white" transform="translate(90 25)"/>
</clipPath>
</defs>
</svg>
