<?xml version="1.0" standalone="no"?>
<!DOCTYPE svg PUBLIC "-//W3C//DTD SVG 20010904//EN"
 "http://www.w3.org/TR/2001/REC-SVG-20010904/DTD/svg10.dtd">
<svg version="1.0" xmlns="http://www.w3.org/2000/svg"
 width="512.000000pt" height="512.000000pt" viewBox="0 0 512.000000 512.000000"
 preserveAspectRatio="xMidYMid meet">
<metadata>
Created by potrace 1.14, written by Peter Selinger 2001-2017
</metadata>
<g transform="translate(0.000000,512.000000) scale(0.100000,-0.100000)"
fill="#000000" stroke="none">
<path d="M2379 5116 c-2 -2 -40 -6 -83 -10 -44 -4 -82 -9 -85 -11 -4 -2 -34
-7 -66 -10 -77 -9 -309 -67 -400 -99 -138 -49 -159 -57 -259 -103 -539 -247
-989 -695 -1245 -1238 -49 -103 -126 -305 -136 -355 -2 -8 -10 -40 -19 -70
-19 -68 -52 -227 -60 -295 -4 -27 -10 -81 -15 -120 -9 -71 -7 -483 2 -520 3
-12 8 -48 12 -80 8 -67 7 -61 30 -170 65 -315 183 -599 360 -870 111 -170 202
-281 359 -436 l79 -78 -94 0 c-218 2 -234 0 -270 -24 -19 -12 -44 -41 -55 -65
-36 -69 -9 -149 63 -189 37 -20 51 -21 400 -19 348 1 363 2 389 22 15 11 37
33 48 48 20 27 21 39 21 401 0 363 -1 374 -21 402 -65 87 -183 87 -248 0 -19
-26 -21 -44 -24 -188 -2 -87 -7 -159 -11 -159 -8 0 -163 158 -216 220 -188
219 -359 536 -439 813 -65 223 -89 397 -90 637 -1 177 8 281 35 425 84 452
292 847 619 1176 297 298 646 498 1048 598 215 54 304 65 527 66 243 0 396
-18 593 -70 139 -37 185 -32 238 27 57 62 45 168 -26 218 -37 26 -251 81 -410
105 -100 15 -539 32 -551 21z"/>
<path d="M3865 4762 c-39 -13 -67 -37 -86 -74 -18 -35 -19 -62 -19 -396 0
-356 0 -359 23 -392 31 -47 66 -70 112 -74 55 -5 105 17 135 61 23 34 25 46
30 197 l5 161 85 -85 c100 -100 126 -129 207 -235 234 -304 380 -662 444
-1090 18 -121 15 -438 -5 -575 -24 -160 -23 -156 -50 -261 -175 -671 -637
-1218 -1266 -1500 -166 -74 -377 -138 -540 -164 -25 -4 -56 -9 -70 -12 -105
-19 -468 -25 -570 -9 -19 3 -51 8 -70 11 -94 14 -163 28 -250 51 -114 29 -145
30 -188 4 -68 -42 -91 -129 -53 -200 30 -56 95 -84 291 -124 109 -22 129 -25
195 -32 33 -4 64 -9 69 -12 23 -13 456 -10 566 4 685 88 1274 416 1700 945
301 375 500 856 547 1327 13 122 9 507 -6 607 -85 584 -327 1069 -738 1483
-46 46 -83 84 -83 86 0 1 62 2 138 1 158 -1 201 7 238 44 69 68 61 176 -17
232 l-34 24 -360 2 c-198 1 -369 -2 -380 -5z"/>
<path d="M2500 4384 c-47 -20 -232 -212 -357 -370 -26 -34 -61 -78 -78 -99
-61 -77 -225 -327 -225 -343 0 -6 -3 -12 -8 -14 -8 -3 -39 -60 -102 -188 -62
-126 -142 -332 -155 -400 -2 -12 -11 -46 -19 -74 -52 -183 -75 -458 -53 -633
35 -283 215 -570 462 -739 86 -59 308 -154 359 -154 6 0 28 -5 48 -10 l37 -11
3 -184 c3 -200 6 -210 70 -258 40 -30 115 -28 161 3 57 39 61 56 67 260 l5
185 53 7 c240 35 527 226 675 451 88 132 129 229 168 397 15 62 18 308 6 415
-60 541 -374 1136 -872 1653 -113 119 -165 141 -245 106z"/>
</g>
</svg>
